<svg version="1.1" id="Layer_1" xmlns="http://www.w3.org/2000/svg" xmlns:xlink="http://www.w3.org/1999/xlink" x="0px" y="0px"
	 width="100%" viewBox="0 0 311 267" enable-background="new 0 0 311 267" xml:space="preserve">
<path fill="#000000" opacity="1.000000" stroke="none"
	d="
M182.000000,268.000000
	C121.333344,268.000000 61.166679,268.000000 1.000016,268.000000
	C1.000011,179.000015 1.000011,90.000038 1.000005,1.000040
	C104.666634,1.000027 208.333267,1.000027 311.999939,1.000013
	C311.999939,89.999962 311.999939,178.999924 311.999969,267.999939
	C268.833344,268.000000 225.666672,268.000000 182.000000,268.000000
M190.432449,217.823410
	C190.689377,217.621811 190.852539,217.361481 191.061462,216.402527
	C191.409821,215.606033 191.758179,214.809540 192.119232,213.337372
	C192.115326,212.886826 192.111435,212.436295 192.322052,211.418488
	C193.489578,210.417816 194.657089,209.417145 196.341797,208.673050
	C196.982834,207.815186 197.623871,206.957321 198.639191,205.990311
	C198.639191,205.990311 199.014877,205.886063 199.706360,205.918991
	C200.185059,205.273270 200.663773,204.627563 201.126419,203.258942
	C202.467331,201.180084 203.808228,199.101227 205.229568,196.313217
	C205.540619,194.940063 205.851669,193.566895 206.873581,192.075226
	C207.590347,192.000534 208.307129,191.925842 209.774643,191.933380
	C211.203323,191.651184 212.631989,191.368988 214.606354,191.233139
	C218.372604,191.924698 221.992386,192.580597 224.586227,188.430618
	C225.116150,187.582809 227.462784,187.475128 228.887283,187.664215
	C231.840942,188.056274 234.170959,187.987305 234.620651,183.893402
	C234.855179,183.674225 235.006378,183.407761 235.057175,183.060532
	C235.057175,183.060532 235.094727,183.059448 235.610336,182.783203
	C236.380692,181.950882 237.151062,181.118576 238.194351,180.709290
	C238.453445,181.138931 238.712524,181.568558 239.314194,182.658279
	C241.587280,182.833786 243.860367,183.009293 246.461838,183.129547
	C246.461838,183.129547 246.790924,183.078644 247.112579,183.333282
	C247.473816,183.246460 247.835052,183.159637 248.548309,183.112808
	C248.548309,183.112808 248.899841,183.156982 249.361298,183.534622
	C250.273849,183.405899 251.186386,183.277161 252.453506,183.107803
	C252.453506,183.107803 252.808533,183.071365 253.125092,183.329468
	C253.486893,183.245865 253.848694,183.162247 254.790665,183.364838
	C257.877563,182.544357 260.964478,181.723877 264.509216,180.724228
	C264.784698,180.536499 265.019501,180.307114 265.592133,179.742249
	C265.796814,179.316498 266.001465,178.890747 266.905182,178.226608
	C267.779663,176.536758 268.654114,174.846893 270.181580,173.064041
	C270.161072,171.501099 270.140564,169.938141 270.640930,167.942261
	C271.891663,167.013412 273.142395,166.084564 274.699341,164.974228
	C274.891693,164.824829 275.033569,164.637268 275.897797,164.232361
	C277.954712,163.515015 280.011658,162.797668 282.048737,162.019592
	C282.048737,162.019592 282.019867,162.076553 282.632538,162.008148
	C283.135132,161.687302 283.637756,161.366455 284.534546,161.064972
	C284.534546,161.064972 284.926880,161.107666 285.379822,161.509506
	C287.024933,161.049866 288.670044,160.590210 291.059753,160.027542
	C295.427246,159.833313 299.794708,159.639084 304.757111,158.851105
	C305.154236,157.965820 305.886841,157.084137 305.896332,156.194702
	C305.986694,147.737213 306.020874,139.277283 305.877106,130.821335
	C305.858124,129.706390 304.750244,128.609955 304.119934,126.896614
	C303.235962,126.242996 302.352020,125.589378 301.074280,124.472244
	C300.710297,124.306030 300.346283,124.139816 299.445831,123.659866
	C298.351013,123.087074 297.256165,122.514282 295.623657,121.486137
	C294.319672,121.619530 293.015686,121.752922 291.350372,121.936760
	C291.350372,121.936760 290.993164,122.010704 290.183472,121.962700
	C289.098450,121.943390 288.013397,121.924088 286.024811,121.827583
	C282.417297,121.865387 278.809753,121.903191 275.100616,121.250664
	C274.433868,120.081909 273.767090,118.913147 272.755066,117.249359
	C271.864441,116.169487 270.973785,115.089622 269.686554,113.418312
	C267.816315,111.879326 265.946075,110.340332 263.869537,108.454628
	C263.700134,108.236656 263.487457,108.075974 263.049683,107.397690
	C262.719757,106.914497 262.389832,106.431305 262.010437,105.955650
	C262.010437,105.955650 262.054749,105.968498 261.866486,105.502365
	C261.591431,105.323914 261.316345,105.145470 261.001709,104.990791
	C261.001709,104.990791 261.036987,104.956757 260.872742,104.484283
	C260.597046,104.312408 260.321320,104.140533 260.011841,103.987778
	C260.011841,103.987778 260.031036,103.954041 259.862732,103.474243
	C259.584229,103.294670 259.305725,103.115089 259.019653,103.000481
	C259.019653,103.000481 259.054688,102.944954 258.648712,102.505768
	C258.109772,102.247581 257.570831,101.989403 257.077393,101.392784
	C257.077393,101.392784 257.083374,101.051353 256.919281,100.480820
	C256.638672,100.205231 256.358093,99.929642 255.685593,99.133247
	C253.611603,96.394157 251.537613,93.655075 249.253494,90.219032
	C248.932556,89.078194 248.611618,87.937363 248.000519,86.339012
	C247.457626,85.867714 246.914749,85.396416 246.215912,84.216148
	C245.478912,82.852272 244.741913,81.488396 243.214874,80.096954
	C241.146851,80.375916 239.078812,80.654869 236.445084,81.228058
	C236.282150,81.827568 236.119217,82.427086 235.558884,83.464531
	C234.709595,83.969948 233.860321,84.475365 232.414536,85.024529
	C231.922974,85.329834 231.431396,85.635132 231.000977,85.969780
	C231.000977,85.969780 230.940643,85.927605 230.428497,86.199402
	C229.928940,86.781204 229.429382,87.363014 228.961090,87.996094
	C228.961090,87.996094 228.979019,87.938774 228.465744,88.146324
	C228.211487,88.412956 227.957230,88.679588 227.155151,89.306694
	C225.342834,92.079628 223.509018,94.838898 221.732132,97.634354
	C221.239777,98.408951 221.140839,99.626389 220.479050,100.069054
	C216.378693,102.811775 212.169296,105.391487 207.505844,108.344101
	C207.342361,108.892998 207.178879,109.441895 206.978302,110.398201
	C206.978302,110.398201 206.968597,110.807190 206.589172,111.129799
	C206.338593,111.358978 206.164108,111.636047 206.011276,112.385612
	C206.011276,112.385612 205.983612,112.812790 205.245667,112.866570
	C204.188614,113.568367 203.131561,114.270172 202.053116,115.604713
	C202.031387,116.026199 202.009644,116.447685 201.394684,116.997986
	C200.891968,117.320549 200.389252,117.643112 199.258209,117.971680
	C198.839340,117.974678 198.420471,117.977676 197.448715,118.341919
	C197.261948,119.189598 197.075180,120.037270 196.556396,121.206406
	C196.342834,121.430397 196.156372,121.675041 195.429581,122.029228
	C194.978867,122.348663 194.528168,122.668098 193.590088,123.457977
	C191.727737,124.697807 189.966431,126.154236 187.961975,127.089546
	C186.899353,127.585373 185.414398,127.176125 183.901779,126.542763
	C183.617752,126.200790 183.333710,125.858826 182.581299,125.019730
	C180.754868,122.097717 178.407013,120.274521 174.674057,120.914162
	C173.988007,121.031723 172.858170,120.652847 172.475204,120.116272
	C169.275162,115.632713 166.140472,117.586609 162.235001,119.992371
	C161.505814,120.020836 160.776642,120.049301 159.519409,120.076859
	C159.343414,120.074493 159.167419,120.072128 158.391815,120.210579
	C157.613281,120.437073 156.834732,120.663559 156.004395,120.929459
	C156.004395,120.929459 156.068512,120.940659 155.671051,120.460373
	C154.815308,119.852631 153.959564,119.244896 152.770538,118.123817
	C151.546692,117.084641 150.322845,116.045471 149.356842,114.450058
	C148.251938,112.969856 147.147049,111.489662 145.708267,109.315994
	C142.515732,104.940201 137.923080,107.695885 133.744278,106.395226
	C131.568771,104.824486 129.393265,103.253746 126.812950,101.318253
	C126.306709,101.128456 125.800461,100.938660 125.056580,100.118538
	C123.344452,98.397110 121.632324,96.675682 119.929138,94.292679
	C119.649490,93.701599 119.369843,93.110527 118.951469,92.123764
	C118.662071,91.824745 118.372673,91.525726 118.388412,90.926498
	C118.281563,90.555733 118.174706,90.184967 118.118317,89.112457
	C118.093704,88.410767 118.069092,87.709084 118.034920,86.227203
	C118.179787,85.200752 118.324654,84.174309 118.944878,82.792976
	C119.671310,81.866974 120.397751,80.940971 121.144737,79.338112
	C121.137657,78.886734 121.130577,78.435356 121.155823,77.282150
	C120.806297,76.191597 120.456772,75.101036 120.015083,73.246696
	C118.323845,72.455742 116.632599,71.664787 114.358223,70.587296
	C108.890671,68.752136 103.423119,66.916985 97.310768,64.996925
	C96.877251,64.971077 96.443741,64.945229 96.032135,64.982506
	C96.032135,64.982506 96.090538,64.950058 95.962708,64.274826
	C94.984367,63.152790 94.006027,62.030758 92.964745,60.195877
	C91.094101,56.751850 89.223457,53.307819 86.798241,49.432037
	C85.890442,49.323986 84.982643,49.215935 83.579475,48.632408
	C81.698776,45.751915 79.818077,42.871422 77.923973,39.353897
	C77.311676,38.545860 76.699387,37.737823 76.037720,36.967030
	C76.037720,36.967030 76.063995,36.911160 75.662552,36.277050
	C73.439629,35.846745 71.216713,35.416435 68.422729,34.636921
	C64.353004,31.340284 60.283279,28.043648 56.151661,24.371071
	C56.151661,24.371071 56.094238,23.994417 56.114193,23.260914
	C55.046360,21.798885 53.978523,20.336859 52.607933,18.228531
	C47.357517,14.458875 44.245377,15.341929 42.070957,21.000957
	C36.067249,23.041151 30.063540,25.081343 23.766645,27.221167
	C24.804527,31.310801 21.266092,32.198284 17.689144,32.864666
	C14.649606,33.430927 12.267894,35.603191 14.792373,37.663837
	C17.367022,39.765434 17.225679,41.629383 16.965961,43.957024
	C16.541735,47.758991 17.244783,50.367447 21.791845,50.719666
	C23.637840,50.862659 25.410309,51.954857 26.522505,52.361507
	C26.280815,58.903557 23.998852,64.856430 28.478540,70.398827
	C29.673172,71.876862 30.666489,73.851501 30.905956,75.707344
	C31.748276,82.235161 31.692768,88.920280 33.021484,95.329376
	C33.913246,99.630753 35.612240,105.920479 38.643440,107.151772
	C44.122871,109.377533 40.963203,111.722275 40.709991,114.371826
	C40.431751,117.283257 40.245922,120.238640 40.421478,123.150658
	C40.739277,128.422089 41.442642,133.670273 41.760826,138.941696
	C41.814034,139.823120 40.957417,141.210526 40.145134,141.622345
	C33.171337,145.157928 26.157349,148.623184 19.059198,151.901215
	C14.783170,153.875916 11.184761,164.981827 14.729259,167.788040
	C20.496941,172.354385 24.093817,179.770584 32.402184,181.232452
	C34.583225,181.616196 37.576687,183.579590 38.210125,185.479889
	C40.829506,193.337906 47.467304,193.579544 53.565380,193.750519
	C60.285168,193.938934 66.989738,196.057373 73.801506,194.113571
	C75.633514,193.590790 77.817383,193.896439 79.747879,194.281876
	C80.829285,194.497787 82.540817,195.621170 82.574669,196.396515
	C82.944153,204.860413 90.183327,209.378647 93.657974,216.027527
	C94.670990,217.965988 96.529366,219.462662 97.431343,221.593307
	C96.867363,223.091187 96.376465,224.621780 95.723351,226.079727
	C94.563828,228.668152 97.088371,234.689560 100.005890,236.012024
	C100.005890,236.012024 99.951508,236.025772 100.363167,236.583389
	C101.037918,236.763245 101.712677,236.943100 103.028473,237.303207
	C106.652481,240.427017 110.210968,240.590027 113.992416,237.411789
	C115.024117,236.544708 116.648178,236.269836 118.053329,235.978851
	C124.662354,234.610229 124.857109,240.508942 127.023735,244.903702
	C127.641060,246.955658 128.258392,249.007629 128.913818,251.127304
	C128.913818,251.127304 128.982758,251.091431 129.243637,251.668045
	C130.525513,251.821426 131.807404,251.974808 133.723770,252.361099
	C134.508926,252.388168 135.486298,252.731461 136.047638,252.390274
	C139.346573,250.385208 141.788864,250.207474 143.478516,254.493271
	C143.775497,255.246597 146.504730,255.041046 148.626251,254.877487
	C148.777008,254.257401 148.927750,253.637299 149.015320,253.005386
	C149.015320,253.005386 149.020691,253.069427 149.627975,252.975983
	C150.146622,252.671097 150.665253,252.366196 151.534683,251.821030
	C151.754562,251.635162 151.928650,251.413376 152.591858,250.780518
	C153.154266,249.887741 153.716675,248.994980 154.891418,247.983978
	C155.920029,247.348328 156.948639,246.712677 158.445541,245.700806
	C158.643677,245.149399 158.841827,244.597977 159.039627,244.115891
	C159.039627,244.115891 159.108948,244.115784 159.846756,244.120728
	C161.370850,243.469009 162.894928,242.817276 164.915710,241.825317
	C166.324402,240.712616 167.733093,239.599915 169.746353,238.180145
	C170.613342,237.499832 171.480331,236.819519 172.839111,235.751999
	C174.263336,234.265396 175.687546,232.778793 177.624451,230.868149
	C178.238998,229.962341 178.853561,229.056534 179.822067,227.861084
	C180.028946,227.618332 180.134735,227.337509 180.489410,226.535568
	C181.342239,225.720825 182.195068,224.906082 183.069489,224.145874
	C183.069489,224.145874 183.122528,224.120789 183.807404,224.031387
	C184.839844,222.690826 185.872284,221.350281 187.333298,219.569290
	C187.902573,219.352615 188.471863,219.135941 189.475891,218.746231
	C189.744934,218.566330 189.938797,218.325821 190.002823,218.004501
	C190.002823,218.004501 190.025726,218.058105 190.432449,217.823410
z"/>
<path fill="#242B31" opacity="1.000000" stroke="none"
	d="
M98.000259,221.161835
	C96.529366,219.462662 94.670990,217.965988 93.657974,216.027527
	C90.183327,209.378647 82.944153,204.860413 82.574669,196.396515
	C82.540817,195.621170 80.829285,194.497787 79.747879,194.281876
	C77.817383,193.896439 75.633514,193.590790 73.801506,194.113571
	C66.989738,196.057373 60.285168,193.938934 53.565380,193.750519
	C47.467304,193.579544 40.829506,193.337906 38.210125,185.479889
	C37.576687,183.579590 34.583225,181.616196 32.402184,181.232452
	C24.093817,179.770584 20.496941,172.354385 14.729259,167.788040
	C11.184761,164.981827 14.783170,153.875916 19.059198,151.901215
	C26.157349,148.623184 33.171337,145.157928 40.145134,141.622345
	C40.957417,141.210526 41.814034,139.823120 41.760826,138.941696
	C41.442642,133.670273 40.739277,128.422089 40.421478,123.150658
	C40.245922,120.238640 40.431751,117.283257 40.709991,114.371826
	C40.963203,111.722275 44.122871,109.377533 38.643440,107.151772
	C35.612240,105.920479 33.913246,99.630753 33.021484,95.329376
	C31.692768,88.920280 31.748276,82.235161 30.905956,75.707344
	C30.666489,73.851501 29.673172,71.876862 28.478540,70.398827
	C23.998852,64.856430 26.280815,58.903557 26.522505,52.361507
	C25.410309,51.954857 23.637840,50.862659 21.791845,50.719666
	C17.244783,50.367447 16.541735,47.758991 16.965961,43.957024
	C17.225679,41.629383 17.367022,39.765434 14.792373,37.663837
	C12.267894,35.603191 14.649606,33.430927 17.689144,32.864666
	C21.266092,32.198284 24.804527,31.310801 23.766645,27.221167
	C30.063540,25.081343 36.067249,23.041151 42.826488,21.128387
	C46.691578,20.462154 49.801132,19.668493 52.910690,18.874830
	C53.978523,20.336859 55.046360,21.798885 55.701702,23.696774
	C54.400448,24.704720 53.511681,25.276804 52.219944,25.742208
	C49.296398,25.845549 46.525723,25.461891 44.309917,26.395353
	C40.312138,28.079517 36.754501,32.092770 32.818924,32.369152
	C24.966774,32.920570 24.067036,37.898010 23.044722,43.770985
	C23.644888,44.052551 24.238583,44.294067 24.797260,44.599617
	C27.149633,45.886158 30.777119,46.677078 31.549360,48.605766
	C32.852283,51.859848 36.203426,55.686691 32.181248,59.595020
	C31.678917,60.083130 31.820736,61.609875 32.132271,62.489559
	C33.075413,65.152679 33.814102,68.044456 35.415371,70.288452
	C39.910934,76.588478 40.137215,83.523026 39.559196,90.791496
	C39.160160,95.809334 41.977077,99.383705 45.658207,102.398201
	C46.485622,103.075768 48.012592,104.122490 47.870026,104.569679
	C46.607712,108.529129 50.521122,113.497551 45.346024,116.866859
	C44.581825,117.364395 45.447697,120.619469 45.843006,122.540359
	C46.050289,123.547569 47.224609,124.380325 47.359646,125.373772
	C48.126133,131.012772 48.356514,136.747620 49.473183,142.308502
	C50.310249,146.477005 48.139988,147.093170 45.100189,147.837936
	C42.823814,148.395660 40.643734,149.418472 38.491123,150.390060
	C36.094868,151.471603 33.813873,152.808334 31.418568,153.892227
	C27.963474,155.455643 24.409918,156.807175 20.998072,158.455475
	C20.347750,158.769653 19.590441,160.378189 19.849991,160.816162
	C21.659016,163.868530 23.106707,167.692200 25.839758,169.518127
	C30.785942,172.822632 36.568359,174.864975 41.945721,177.546417
	C42.714790,177.929901 43.414143,178.845612 43.734459,179.674042
	C46.112782,185.824982 48.953960,187.350479 55.573135,187.148300
	C64.886482,186.863831 74.220932,186.909866 83.531517,187.236938
	C85.150780,187.293808 87.347740,189.109589 88.137291,190.684692
	C89.649788,193.702042 90.021210,197.281525 91.463821,200.346436
	C93.025826,203.664978 94.574516,208.223495 97.365059,209.466675
	C102.747330,211.864456 103.296158,215.339340 102.999290,220.169250
	C102.703239,224.985825 103.182144,229.713562 106.587517,233.649048
	C108.351593,235.687729 109.634811,235.411011 110.616699,233.090912
	C111.034805,232.102951 111.144073,230.984299 111.413109,229.842682
	C116.572212,229.842682 121.411102,230.122025 126.200569,229.755478
	C130.128067,229.454895 130.859665,231.043045 131.095490,234.583374
	C131.361145,238.571976 132.677811,242.490585 133.712021,247.242218
	C137.993744,244.011688 141.058929,241.424179 144.433899,245.917389
	C144.690933,246.259628 146.719498,245.650116 147.640503,245.048264
	C151.349075,242.624725 154.966171,240.058685 158.577164,237.489243
	C161.030975,235.743195 163.717361,234.191513 165.777496,232.050430
	C171.187592,226.427658 176.044357,220.255020 181.627258,214.821014
	C186.959946,209.630554 187.943420,200.670593 196.297134,198.137131
	C197.020187,197.917831 197.540817,196.632996 197.919205,195.742676
	C199.748657,191.438324 201.497299,187.099640 203.354385,182.578857
	C207.061829,182.775421 210.687973,182.363831 213.947372,183.270523
	C220.083969,184.977585 224.183212,184.465393 227.218597,179.612335
	C229.242493,176.376511 231.197098,173.672729 234.622223,171.542145
	C237.723801,169.612808 238.972382,169.990784 240.342957,172.828384
	C243.336227,179.025589 249.043549,177.637421 253.882172,177.037491
	C257.661652,176.568878 259.687531,173.416061 261.552338,169.651932
	C263.757172,165.201370 267.385986,160.360062 271.658325,158.289047
	C277.934204,155.246811 285.353760,154.607468 292.237061,152.761810
	C298.540253,151.071701 299.946655,148.684067 299.201904,141.756241
	C299.232361,140.681976 299.103577,139.837021 298.895630,138.540207
	C298.816467,134.516876 298.816467,130.945374 298.816467,127.010994
	C293.524750,128.011383 288.905731,128.884613 283.960114,129.819580
	C280.017426,128.650833 275.508667,127.314301 270.917358,125.716400
	C270.325104,124.969032 269.815399,124.483017 269.074341,123.736404
	C264.538361,118.593414 260.194031,113.745087 255.955246,108.806175
	C254.807175,107.468483 254.316437,105.287315 252.942993,104.471954
	C247.710052,101.365395 245.143234,96.403381 242.537582,91.291756
	C241.969040,90.176453 239.981339,88.914185 238.869904,89.094215
	C233.600281,89.947792 230.410339,94.396378 227.896378,98.152542
	C225.396317,101.887932 223.400375,105.529510 219.635162,108.386810
	C214.991821,111.910515 211.045715,116.369095 206.904663,120.529533
	C205.533279,121.907326 204.783737,124.038467 203.247574,125.094475
	C196.798599,129.527710 190.274475,133.882782 183.510193,137.804825
	C181.778412,138.808929 179.056503,138.255692 176.817734,138.072647
	C176.482971,138.045273 175.772034,135.846924 176.142654,135.108276
	C177.982376,131.441818 176.469681,128.424179 173.503418,127.176468
	C171.026810,126.134720 167.462006,126.212341 164.886581,127.165421
	C158.690704,129.458313 151.345428,127.616394 147.559235,122.707993
	C145.451035,119.974922 142.641205,116.840622 139.577805,116.023682
	C135.685654,114.985725 131.908417,115.704636 129.102432,111.235565
	C127.297745,108.361259 122.757172,107.354919 119.932060,104.939232
	C114.396729,100.206116 109.931190,94.746696 111.007797,86.650314
	C111.247581,84.847054 111.523346,82.867111 111.018379,81.199974
	C110.560837,79.689392 109.320648,78.087440 107.976318,77.230362
	C101.933273,73.377586 95.170494,70.443405 89.743904,65.893784
	C84.435783,61.443485 82.806274,53.243809 75.193436,50.663506
	C74.514404,50.433353 73.904564,48.584881 74.041580,47.595932
	C74.802589,42.103275 69.801086,40.188496 66.986961,39.882900
	C59.677856,39.089191 57.783813,32.047062 52.505566,29.196260
	C52.119282,28.987625 52.636337,27.106459 53.109680,25.970013
	C54.395149,25.540436 55.304352,25.143724 56.213551,24.747013
	C60.283279,28.043648 64.353004,31.340284 68.941925,35.099548
	C71.662071,36.011841 73.863037,36.461498 76.063995,36.911160
	C76.063995,36.911160 76.037720,36.967030 76.077148,37.277206
	C76.723511,38.388565 77.330444,39.189751 77.937378,39.990932
	C79.818077,42.871422 81.698776,45.751915 84.118744,49.041435
	C85.556282,49.588242 86.454552,49.726017 87.352814,49.863792
	C89.223457,53.307819 91.094101,56.751850 93.059296,60.893730
	C94.132744,62.711079 95.111641,63.830570 96.090538,64.950058
	C96.090538,64.950058 96.032135,64.982506 96.189041,65.098656
	C96.882484,65.170479 97.419022,65.126152 97.955566,65.081825
	C103.423119,66.916985 108.890671,68.752136 114.846497,71.015480
	C116.925591,72.299271 118.516418,73.154869 120.107239,74.010475
	C120.456772,75.101036 120.806297,76.191597 120.900475,77.713013
	C120.804817,78.767570 120.964508,79.391273 121.124191,80.014969
	C120.397751,80.940971 119.671310,81.866974 118.371452,83.048401
	C115.449921,84.700066 115.962196,85.905968 118.044479,87.007393
	C118.069092,87.709084 118.093704,88.410767 118.091888,89.817093
	C118.071404,90.756706 118.077339,90.991699 118.083282,91.226700
	C118.372673,91.525726 118.662071,91.824745 119.068413,92.649765
	C119.430305,93.768600 119.675255,94.361427 119.920197,94.954254
	C121.632324,96.675682 123.344452,98.397110 125.023788,100.647957
	C125.733246,101.345917 126.475494,101.514458 127.217751,101.682999
	C129.393265,103.253746 131.568771,104.824486 134.021454,107.052841
	C137.035950,112.129845 141.528046,108.946754 145.082611,110.521484
	C146.476089,112.243614 147.787537,113.624954 149.098999,115.006294
	C150.322845,116.045471 151.546692,117.084641 153.027100,118.723938
	C154.211945,119.862923 155.140228,120.401794 156.068512,120.940659
	C156.068512,120.940659 156.004395,120.929459 156.112335,121.171371
	C157.143997,120.965446 158.067703,120.517609 158.991409,120.069763
	C159.167419,120.072128 159.343414,120.074493 160.004730,120.230331
	C161.314331,120.276901 162.138596,120.169991 162.962875,120.063087
	C166.140472,117.586609 169.275162,115.632713 172.475204,120.116272
	C172.858170,120.652847 173.988007,121.031723 174.674057,120.914162
	C178.407013,120.274521 180.754868,122.097717 182.970642,125.560303
	C183.613373,126.459061 183.866745,126.817253 184.120102,127.175453
	C185.414398,127.176125 186.899353,127.585373 187.961975,127.089546
	C189.966431,126.154236 191.727737,124.697807 194.100830,123.149323
	C195.073395,122.540558 195.535202,122.240448 195.997009,121.940338
	C196.156372,121.675041 196.342834,121.430397 196.949951,121.017136
	C197.562881,119.878807 197.782242,118.929733 198.001602,117.980667
	C198.420471,117.977676 198.839340,117.974678 199.868271,117.901291
	C200.981522,117.510323 201.484711,117.189751 201.987900,116.869171
	C202.009644,116.447685 202.031387,116.026199 202.356079,115.155991
	C203.767242,114.075775 204.875427,113.444283 205.983612,112.812790
	C205.983612,112.812790 206.011276,112.385612 206.211044,112.000549
	C206.629898,111.368935 206.815826,111.099510 206.968597,110.807190
	C206.968597,110.807190 206.978302,110.398201 207.172943,109.978867
	C207.577103,109.048126 207.786606,108.536728 207.996109,108.025322
	C212.169296,105.391487 216.378693,102.811775 220.479050,100.069054
	C221.140839,99.626389 221.239777,98.408951 221.732132,97.634354
	C223.509018,94.838898 225.342834,92.079628 227.666382,88.988335
	C228.444748,88.426247 228.711884,88.182510 228.979019,87.938774
	C228.979019,87.938774 228.961090,87.996094 229.234039,87.874725
	C229.984879,87.144768 230.462753,86.536186 230.940643,85.927605
	C230.940643,85.927605 231.000977,85.969780 231.254517,85.895798
	C232.009048,85.541481 232.510040,85.261131 233.011032,84.980782
	C233.860321,84.475365 234.709595,83.969948 235.947205,83.016556
	C236.560608,82.023666 236.785706,81.478745 237.010788,80.933830
	C239.078812,80.654869 241.146851,80.375916 243.617783,80.469650
	C244.804413,82.203270 245.588135,83.564194 246.371857,84.925125
	C246.914749,85.396416 247.457626,85.867714 247.933533,86.825302
	C248.398926,88.513054 248.931290,89.714516 249.463623,90.915985
	C251.537613,93.655075 253.611603,96.394157 256.018097,99.649567
	C256.594849,100.461044 256.839111,100.756203 257.083374,101.051361
	C257.083374,101.051353 257.077393,101.392784 257.256104,101.791489
	C257.974762,102.441788 258.514740,102.693367 259.054688,102.944954
	C259.054688,102.944954 259.019653,103.000481 259.174683,103.153351
	C259.543335,103.543976 259.777100,103.759911 260.031036,103.954041
	C260.031036,103.954041 260.011841,103.987778 260.179291,104.157181
	C260.558319,104.556946 260.788391,104.766998 261.036987,104.956757
	C261.036987,104.956757 261.001709,104.990791 261.175415,105.160461
	C261.565277,105.563957 261.800507,105.776741 262.054749,105.968498
	C262.054749,105.968498 262.010437,105.955650 262.108398,106.241585
	C262.548096,107.009209 262.889801,107.490898 263.231506,107.972580
	C263.487457,108.075974 263.700134,108.236656 263.959839,109.050888
	C263.656555,114.426643 267.022797,114.006721 270.083160,114.009758
	C270.973785,115.089622 271.864441,116.169487 272.916382,117.881348
	C273.785889,119.655891 274.494080,120.798431 275.202240,121.940987
	C278.809753,121.903191 282.417297,121.865387 286.737793,122.059769
	C288.631561,122.198204 289.812347,122.104454 290.993164,122.010704
	C290.993164,122.010704 291.350372,121.936760 291.977173,121.936096
	C293.789764,121.937454 294.975555,121.939476 296.161346,121.941498
	C297.256165,122.514282 298.351013,123.087074 299.937866,124.009377
	C300.775940,124.551170 301.122009,124.743462 301.468048,124.935760
	C302.352020,125.589378 303.235962,126.242996 304.106262,127.692413
	C304.115814,138.807098 304.139008,149.125977 304.162201,159.444855
	C299.794708,159.639084 295.427246,159.833313 290.278748,160.053589
	C287.974091,160.422302 286.450500,160.764984 284.926880,161.107666
	C284.926880,161.107666 284.534546,161.064972 284.042175,161.116730
	C283.039856,161.471176 282.529846,161.773865 282.019867,162.076553
	C282.019867,162.076553 282.048737,162.019592 281.633362,162.032150
	C279.186981,162.833649 277.156006,163.622604 275.125000,164.411560
	C275.033569,164.637268 274.891693,164.824829 274.153687,165.061584
	C272.445374,166.224365 271.282715,167.299774 270.120056,168.375198
	C270.140564,169.938141 270.161072,171.501099 269.453247,173.170914
	C267.885345,175.006851 267.045715,176.735931 266.206116,178.464996
	C266.001465,178.890747 265.796814,179.316498 265.190063,180.009933
	C264.517090,180.456421 264.271576,180.665009 264.051361,180.903381
	C260.964478,181.723877 257.877563,182.544357 254.149597,183.216339
	C253.275192,183.069000 253.041855,183.070175 252.808533,183.071365
	C252.808533,183.071365 252.453506,183.107803 252.037033,182.939392
	C250.713654,182.899643 249.806747,183.028320 248.899841,183.156982
	C248.899841,183.156982 248.548309,183.112808 248.020477,183.090698
	C247.258743,183.071930 247.024826,183.075287 246.790924,183.078644
	C246.790924,183.078644 246.461838,183.129547 245.961823,182.928894
	C243.298416,182.484894 241.135025,182.241547 238.971619,181.998199
	C238.712524,181.568558 238.453445,181.138931 237.965866,180.190048
	C233.110641,177.879120 235.847504,181.829987 235.094727,183.059448
	C235.094727,183.059448 235.057175,183.060532 234.883270,183.099564
	C234.556580,183.484299 234.403778,183.830002 234.250977,184.175690
	C234.170959,187.987305 231.840942,188.056274 228.887283,187.664215
	C227.462784,187.475128 225.116150,187.582809 224.586227,188.430618
	C221.992386,192.580597 218.372604,191.924698 214.049652,190.962494
	C212.003281,191.078293 210.513580,191.464722 209.023895,191.851135
	C208.307129,191.925842 207.590347,192.000534 206.263992,192.036957
	C202.493469,193.372269 201.940598,195.008163 205.149139,197.022369
	C203.808228,199.101227 202.467331,201.180084 200.845306,203.714050
	C200.047760,204.741455 199.531326,205.313751 199.014877,205.886063
	C199.014877,205.886063 198.639191,205.990311 198.111115,206.146210
	C196.996902,207.006897 196.410751,207.711685 195.824600,208.416458
	C194.657089,209.417145 193.489578,210.417816 191.977631,211.782471
	C191.790985,212.768646 191.948761,213.390839 192.106537,214.013062
	C191.758179,214.809540 191.409821,215.606033 190.827057,216.876907
	C190.383469,217.570694 190.194504,217.806305 190.025726,218.058105
	C190.025726,218.058105 190.002823,218.004501 189.847229,218.148560
	C189.454178,218.480087 189.237350,218.688980 189.041153,218.919281
	C188.471863,219.135941 187.902573,219.352615 186.800171,219.875580
	C185.218872,221.494843 184.170700,222.807816 183.122528,224.120789
	C183.122528,224.120789 183.069489,224.145874 182.717484,224.124847
	C181.284912,224.816864 177.501236,223.465454 180.139404,227.018585
	C180.134735,227.337509 180.028946,227.618332 179.285553,228.095490
	C178.203278,229.317337 177.657516,230.304749 177.111755,231.292175
	C175.687546,232.778793 174.263336,234.265396 172.215851,235.957703
	C170.775650,236.938004 169.958710,237.712601 169.141769,238.487213
	C167.733093,239.599915 166.324402,240.712616 164.252655,241.967178
	C162.096054,242.777939 160.602493,243.446854 159.108948,244.115784
	C159.108948,244.115784 159.039627,244.115891 158.851944,244.301773
	C158.435257,245.017441 158.206253,245.547241 157.977249,246.077026
	C156.948639,246.712677 155.920029,247.348328 154.251862,248.141296
	C153.093842,249.250961 152.575394,250.203308 152.056946,251.155655
	C151.928650,251.413376 151.754562,251.635162 151.058853,251.998108
	C150.062256,252.473267 149.541473,252.771347 149.020691,253.069427
	C149.020691,253.069427 149.015320,253.005386 148.852570,253.257141
	C148.496796,254.098709 148.303757,254.688507 148.110718,255.278305
	C146.504730,255.041046 143.775497,255.246597 143.478516,254.493271
	C141.788864,250.207474 139.346573,250.385208 136.047638,252.390274
	C135.486298,252.731461 134.508926,252.388168 133.110428,252.033722
	C131.325638,251.501373 130.154205,251.296402 128.982758,251.091431
	C128.982758,251.091431 128.913818,251.127304 128.845825,250.724731
	C128.221527,248.239120 127.665237,246.156082 127.108940,244.073059
	C124.857109,240.508942 124.662354,234.610229 118.053329,235.978851
	C116.648178,236.269836 115.024117,236.544708 113.992416,237.411789
	C110.210968,240.590027 106.652481,240.427017 102.435455,236.993073
	C101.212128,236.463898 100.581818,236.244843 99.951508,236.025772
	C99.951508,236.025772 100.005890,236.012024 99.951691,235.650024
	C99.265083,230.579300 98.632668,225.870575 98.000259,221.161835
z"/>
<path fill="#252B31" opacity="1.000000" stroke="none"
	d="
M304.459656,159.147980
	C304.139008,149.125977 304.115814,138.807098 304.119629,127.996574
	C304.750244,128.609955 305.858124,129.706390 305.877106,130.821335
	C306.020874,139.277283 305.986694,147.737213 305.896332,156.194702
	C305.886841,157.084137 305.154236,157.965820 304.459656,159.147980
z"/>
<path fill="#899FB7" opacity="1.000000" stroke="none"
	d="
M52.759312,18.551682
	C49.801132,19.668493 46.691578,20.462154 43.190147,21.133896
	C44.245377,15.341929 47.357517,14.458875 52.759312,18.551682
z"/>
<path fill="#9BB7D0" opacity="1.000000" stroke="none"
	d="
M145.000610,110.180702
	C141.528046,108.946754 137.035950,112.129845 134.151581,107.364334
	C137.923080,107.695885 142.515732,104.940201 145.612457,109.691109
	C145.344620,110.104378 145.172623,110.142540 145.000610,110.180702
z"/>
<path fill="#414D58" opacity="1.000000" stroke="none"
	d="
M97.715797,221.377563
	C98.632668,225.870575 99.265083,230.579300 99.936554,235.673645
	C97.088371,234.689560 94.563828,228.668152 95.723351,226.079727
	C96.376465,224.621780 96.867363,223.091187 97.715797,221.377563
z"/>
<path fill="#252B31" opacity="1.000000" stroke="none"
	d="
M275.511414,164.321960
	C277.156006,163.622604 279.186981,162.833649 281.643280,162.062500
	C280.011658,162.797668 277.954712,163.515015 275.511414,164.321960
z"/>
<path fill="#252B31" opacity="1.000000" stroke="none"
	d="
M239.142914,182.328247
	C241.135025,182.241547 243.298416,182.484894 245.797638,182.956512
	C243.860367,183.009293 241.587280,182.833786 239.142914,182.328247
z"/>
<path fill="#252B31" opacity="1.000000" stroke="none"
	d="
M145.082611,110.521484
	C145.172623,110.142540 145.344620,110.104378 145.779388,110.037842
	C147.147049,111.489662 148.251938,112.969856 149.227921,114.728180
	C147.787537,113.624954 146.476089,112.243614 145.082611,110.521484
z"/>
<path fill="#252B31" opacity="1.000000" stroke="none"
	d="
M269.884857,113.714035
	C267.022797,114.006721 263.656555,114.426643 264.062988,109.224243
	C265.946075,110.340332 267.816315,111.879326 269.884857,113.714035
z"/>
<path fill="#252B31" opacity="1.000000" stroke="none"
	d="
M205.189362,196.667786
	C201.940598,195.008163 202.493469,193.372269 205.908569,192.096222
	C205.851669,193.566895 205.540619,194.940063 205.189362,196.667786
z"/>
<path fill="#252B31" opacity="1.000000" stroke="none"
	d="
M75.863274,36.594105
	C73.863037,36.461498 71.662071,36.011841 69.227448,35.274155
	C71.216713,35.416435 73.439629,35.846745 75.863274,36.594105
z"/>
<path fill="#252B31" opacity="1.000000" stroke="none"
	d="
M266.555664,178.345795
	C267.045715,176.735931 267.885345,175.006851 269.126770,173.217407
	C268.654114,174.846893 267.779663,176.536758 266.555664,178.345795
z"/>
<path fill="#252B31" opacity="1.000000" stroke="none"
	d="
M235.352539,182.921326
	C235.847504,181.829987 233.110641,177.879120 237.829407,179.978546
	C237.151062,181.118576 236.380692,181.950882 235.352539,182.921326
z"/>
<path fill="#252B31" opacity="1.000000" stroke="none"
	d="
M120.061165,73.628586
	C118.516418,73.154869 116.925591,72.299271 115.138062,71.158752
	C116.632599,71.664787 118.323845,72.455742 120.061165,73.628586
z"/>
<path fill="#252B31" opacity="1.000000" stroke="none"
	d="
M209.399261,191.892258
	C210.513580,191.464722 212.003281,191.078293 213.776825,190.889343
	C212.631989,191.368988 211.203323,191.651184 209.399261,191.892258
z"/>
<path fill="#252B31" opacity="1.000000" stroke="none"
	d="
M183.464966,224.076080
	C184.170700,222.807816 185.218872,221.494843 186.585892,220.095795
	C185.872284,221.350281 184.839844,222.690826 183.464966,224.076080
z"/>
<path fill="#252B31" opacity="1.000000" stroke="none"
	d="
M127.066338,244.488373
	C127.665237,246.156082 128.221527,248.239120 128.826767,250.690857
	C128.258392,249.007629 127.641060,246.955658 127.066338,244.488373
z"/>
<path fill="#252B31" opacity="1.000000" stroke="none"
	d="
M180.314407,226.777069
	C177.501236,223.465454 181.284912,224.816864 182.706680,224.097580
	C182.195068,224.906082 181.342239,225.720825 180.314407,226.777069
z"/>
<path fill="#252B31" opacity="1.000000" stroke="none"
	d="
M285.153351,161.308594
	C286.450500,160.764984 287.974091,160.422302 289.906433,160.105087
	C288.670044,160.590210 287.024933,161.049866 285.153351,161.308594
z"/>
<path fill="#252B31" opacity="1.000000" stroke="none"
	d="
M159.477844,244.118256
	C160.602493,243.446854 162.096054,242.777939 164.004303,242.137299
	C162.894928,242.817276 161.370850,243.469009 159.477844,244.118256
z"/>
<path fill="#252B31" opacity="1.000000" stroke="none"
	d="
M246.293884,84.570633
	C245.588135,83.564194 244.804413,82.203270 244.012802,80.483429
	C244.741913,81.488396 245.478912,82.852272 246.293884,84.570633
z"/>
<path fill="#252B31" opacity="1.000000" stroke="none"
	d="
M96.026627,64.612442
	C95.111641,63.830570 94.132744,62.711079 93.090767,61.250153
	C94.006027,62.030758 94.984367,63.152790 96.026627,64.612442
z"/>
<path fill="#252B31" opacity="1.000000" stroke="none"
	d="
M118.039703,86.617294
	C115.962196,85.905968 115.449921,84.700066 118.133774,83.225845
	C118.324654,84.174309 118.179787,85.200752 118.039703,86.617294
z"/>
<path fill="#252B31" opacity="1.000000" stroke="none"
	d="
M270.380493,168.158722
	C271.282715,167.299774 272.445374,166.224365 274.000580,165.152328
	C273.142395,166.084564 271.891663,167.013412 270.380493,168.158722
z"/>
<path fill="#252B31" opacity="1.000000" stroke="none"
	d="
M275.151428,121.595825
	C274.494080,120.798431 273.785889,119.655891 273.089020,118.128868
	C273.767090,118.913147 274.433868,120.081909 275.151428,121.595825
z"/>
<path fill="#252B31" opacity="1.000000" stroke="none"
	d="
M129.113190,251.379730
	C130.154205,251.296402 131.325638,251.501373 132.793182,251.917267
	C131.807404,251.974808 130.525513,251.821426 129.113190,251.379730
z"/>
<path fill="#252B31" opacity="1.000000" stroke="none"
	d="
M249.358566,90.567505
	C248.931290,89.714516 248.398926,88.513054 248.078613,87.054062
	C248.611618,87.937363 248.932556,89.078194 249.358566,90.567505
z"/>
<path fill="#252B31" opacity="1.000000" stroke="none"
	d="
M158.691620,120.140175
	C158.067703,120.517609 157.143997,120.965446 156.138245,121.151672
	C156.834732,120.663559 157.613281,120.437073 158.691620,120.140175
z"/>
<path fill="#252B31" opacity="1.000000" stroke="none"
	d="
M249.130569,183.345795
	C249.806747,183.028320 250.713654,182.899643 251.859741,182.959717
	C251.186386,183.277161 250.273849,183.405899 249.130569,183.345795
z"/>
<path fill="#252B31" opacity="1.000000" stroke="none"
	d="
M56.182606,24.559042
	C55.304352,25.143724 54.395149,25.540436 53.046898,25.956747
	C52.607845,25.976349 52.622917,25.848890 52.622917,25.848890
	C53.511681,25.276804 54.400448,24.704720 55.691727,24.063526
	C56.094238,23.994417 56.151661,24.371071 56.182606,24.559042
z"/>
<path fill="#252B31" opacity="1.000000" stroke="none"
	d="
M127.015350,101.500626
	C126.475494,101.514458 125.733246,101.345917 125.142609,100.963120
	C125.800461,100.938660 126.306709,101.128456 127.015350,101.500626
z"/>
<path fill="#252B31" opacity="1.000000" stroke="none"
	d="
M77.930679,39.672417
	C77.330444,39.189751 76.723511,38.388565 76.101837,37.258583
	C76.699387,37.737823 77.311676,38.545860 77.930679,39.672417
z"/>
<path fill="#252B31" opacity="1.000000" stroke="none"
	d="
M205.614639,112.839676
	C204.875427,113.444283 203.767242,114.075775 202.366791,114.839615
	C203.131561,114.270172 204.188614,113.568367 205.614639,112.839676
z"/>
<path fill="#252B31" opacity="1.000000" stroke="none"
	d="
M152.324402,250.968079
	C152.575394,250.203308 153.093842,249.250961 153.945694,248.200409
	C153.716675,248.994980 153.154266,249.887741 152.324402,250.968079
z"/>
<path fill="#252B31" opacity="1.000000" stroke="none"
	d="
M169.444061,238.333679
	C169.958710,237.712601 170.775650,236.938004 171.969971,236.151306
	C171.480331,236.819519 170.613342,237.499832 169.444061,238.333679
z"/>
<path fill="#252B31" opacity="1.000000" stroke="none"
	d="
M177.368103,231.080170
	C177.657516,230.304749 178.203278,229.317337 179.108582,228.240326
	C178.853561,229.056534 178.238998,229.962341 177.368103,231.080170
z"/>
<path fill="#252B31" opacity="1.000000" stroke="none"
	d="
M196.083191,208.544754
	C196.410751,207.711685 196.996902,207.006897 197.923981,206.200775
	C197.623871,206.957321 196.982834,207.815186 196.083191,208.544754
z"/>
<path fill="#252B31" opacity="1.000000" stroke="none"
	d="
M199.360626,205.902527
	C199.531326,205.313751 200.047760,204.741455 200.853333,204.075500
	C200.663773,204.627563 200.185059,205.273270 199.360626,205.902527
z"/>
<path fill="#252B31" opacity="1.000000" stroke="none"
	d="
M192.112885,213.675201
	C191.948761,213.390839 191.790985,212.768646 191.870361,212.066101
	C192.111435,212.436295 192.115326,212.886826 192.112885,213.675201
z"/>
<path fill="#252B31" opacity="1.000000" stroke="none"
	d="
M290.588318,121.986702
	C289.812347,122.104454 288.631561,122.198204 287.189575,122.098373
	C288.013397,121.924088 289.098450,121.943390 290.588318,121.986702
z"/>
<path fill="#252B31" opacity="1.000000" stroke="none"
	d="
M295.892517,121.713821
	C294.975555,121.939476 293.789764,121.937454 292.157837,121.910873
	C293.015686,121.752922 294.319672,121.619530 295.892517,121.713821
z"/>
<path fill="#252B31" opacity="1.000000" stroke="none"
	d="
M155.869781,120.700516
	C155.140228,120.401794 154.211945,119.862923 153.193741,118.980606
	C153.959564,119.244896 154.815308,119.852631 155.869781,120.700516
z"/>
<path fill="#252B31" opacity="1.000000" stroke="none"
	d="
M197.725159,118.161293
	C197.782242,118.929733 197.562881,119.878807 197.115967,120.856407
	C197.075180,120.037270 197.261948,119.189598 197.725159,118.161293
z"/>
<path fill="#252B31" opacity="1.000000" stroke="none"
	d="
M121.134468,79.676544
	C120.964508,79.391273 120.804817,78.767570 120.884308,78.063927
	C121.130577,78.435356 121.137657,78.886734 121.134468,79.676544
z"/>
<path fill="#252B31" opacity="1.000000" stroke="none"
	d="
M230.684570,86.063507
	C230.462753,86.536186 229.984879,87.144768 229.218399,87.849091
	C229.429382,87.363014 229.928940,86.781204 230.684570,86.063507
z"/>
<path fill="#252B31" opacity="1.000000" stroke="none"
	d="
M162.598938,120.027725
	C162.138596,120.169991 161.314331,120.276901 160.268753,120.230789
	C160.776642,120.049301 161.505814,120.020836 162.598938,120.027725
z"/>
<path fill="#252B31" opacity="1.000000" stroke="none"
	d="
M87.075531,49.647919
	C86.454552,49.726017 85.556282,49.588242 84.366432,49.279175
	C84.982643,49.215935 85.890442,49.323986 87.075531,49.647919
z"/>
<path fill="#252B31" opacity="1.000000" stroke="none"
	d="
M207.750977,108.184708
	C207.786606,108.536728 207.577103,109.048126 207.191498,109.775162
	C207.178879,109.441895 207.342361,108.892998 207.750977,108.184708
z"/>
<path fill="#252B31" opacity="1.000000" stroke="none"
	d="
M119.924667,94.623466
	C119.675255,94.361427 119.430305,93.768600 119.137772,92.847610
	C119.369843,93.110527 119.649490,93.701599 119.924667,94.623466
z"/>
<path fill="#414D58" opacity="1.000000" stroke="none"
	d="
M100.157333,236.304581
	C100.581818,236.244843 101.212128,236.463898 102.114937,236.902954
	C101.712677,236.943100 101.037918,236.763245 100.157333,236.304581
z"/>
<path fill="#252B31" opacity="1.000000" stroke="none"
	d="
M258.851685,102.725357
	C258.514740,102.693367 257.974762,102.441788 257.233337,101.960709
	C257.570831,101.989403 258.109772,102.247581 258.851685,102.725357
z"/>
<path fill="#252B31" opacity="1.000000" stroke="none"
	d="
M232.712784,85.002655
	C232.510040,85.261131 232.009048,85.541481 231.223938,85.881134
	C231.431396,85.635132 231.922974,85.329834 232.712784,85.002655
z"/>
<path fill="#252B31" opacity="1.000000" stroke="none"
	d="
M236.727936,81.080948
	C236.785706,81.478745 236.560608,82.023666 236.145905,82.797592
	C236.119217,82.427086 236.282150,81.827568 236.727936,81.080948
z"/>
<path fill="#252B31" opacity="1.000000" stroke="none"
	d="
M158.211395,245.888916
	C158.206253,245.547241 158.435257,245.017441 158.852112,244.267120
	C158.841827,244.597977 158.643677,245.149399 158.211395,245.888916
z"/>
<path fill="#252B31" opacity="1.000000" stroke="none"
	d="
M263.140594,107.685135
	C262.889801,107.490898 262.548096,107.009209 262.133148,106.237808
	C262.389832,106.431305 262.719757,106.914497 263.140594,107.685135
z"/>
<path fill="#252B31" opacity="1.000000" stroke="none"
	d="
M97.633163,65.039375
	C97.419022,65.126152 96.882484,65.170479 96.178085,65.067093
	C96.443741,64.945229 96.877251,64.971077 97.633163,65.039375
z"/>
<path fill="#252B31" opacity="1.000000" stroke="none"
	d="
M234.435822,184.034546
	C234.403778,183.830002 234.556580,183.484299 234.891800,183.116302
	C235.006378,183.407761 234.855179,183.674225 234.435822,184.034546
z"/>
<path fill="#252B31" opacity="1.000000" stroke="none"
	d="
M149.324341,253.022705
	C149.541473,252.771347 150.062256,252.473267 150.883453,252.118256
	C150.665253,252.366196 150.146622,252.671097 149.324341,253.022705
z"/>
<path fill="#252B31" opacity="1.000000" stroke="none"
	d="
M201.691284,116.933578
	C201.484711,117.189751 200.981522,117.510323 200.182434,117.898285
	C200.389252,117.643112 200.891968,117.320549 201.691284,116.933578
z"/>
<path fill="#252B31" opacity="1.000000" stroke="none"
	d="
M282.326202,162.042358
	C282.529846,161.773865 283.039856,161.471176 283.845093,161.107056
	C283.637756,161.366455 283.135132,161.687302 282.326202,162.042358
z"/>
<path fill="#252B31" opacity="1.000000" stroke="none"
	d="
M195.713287,121.984787
	C195.535202,122.240448 195.073395,122.540558 194.344513,122.914101
	C194.528168,122.668098 194.978867,122.348663 195.713287,121.984787
z"/>
<path fill="#252B31" opacity="1.000000" stroke="none"
	d="
M148.368484,255.077896
	C148.303757,254.688507 148.496796,254.098709 148.884171,253.263046
	C148.927750,253.637299 148.777008,254.257401 148.368484,255.077896
z"/>
<path fill="#252B31" opacity="1.000000" stroke="none"
	d="
M260.954865,104.720520
	C260.788391,104.766998 260.558319,104.556946 260.196167,104.147629
	C260.321320,104.140533 260.597046,104.312408 260.954865,104.720520
z"/>
<path fill="#252B31" opacity="1.000000" stroke="none"
	d="
M228.722382,88.042549
	C228.711884,88.182510 228.444748,88.426247 227.940277,88.808098
	C227.957230,88.679588 228.211487,88.412956 228.722382,88.042549
z"/>
<path fill="#252B31" opacity="1.000000" stroke="none"
	d="
M118.235847,91.076599
	C118.077339,90.991699 118.071404,90.756706 118.066650,90.167953
	C118.174706,90.184967 118.281563,90.555733 118.235847,91.076599
z"/>
<path fill="#252B31" opacity="1.000000" stroke="none"
	d="
M257.001343,100.766090
	C256.839111,100.756203 256.594849,100.461044 256.214050,99.909973
	C256.358093,99.929642 256.638672,100.205231 257.001343,100.766090
z"/>
<path fill="#252B31" opacity="1.000000" stroke="none"
	d="
M189.258514,218.832764
	C189.237350,218.688980 189.454178,218.480087 189.874573,218.158661
	C189.938797,218.325821 189.744934,218.566330 189.258514,218.832764
z"/>
<path fill="#252B31" opacity="1.000000" stroke="none"
	d="
M190.229095,217.940765
	C190.194504,217.806305 190.383469,217.570694 190.757294,217.196838
	C190.852539,217.361481 190.689377,217.621811 190.229095,217.940765
z"/>
<path fill="#252B31" opacity="1.000000" stroke="none"
	d="
M259.946899,103.714142
	C259.777100,103.759911 259.543335,103.543976 259.178467,103.120865
	C259.305725,103.115089 259.584229,103.294670 259.946899,103.714142
z"/>
<path fill="#252B31" opacity="1.000000" stroke="none"
	d="
M184.010941,126.859108
	C183.866745,126.817253 183.613373,126.459061 183.204834,125.808868
	C183.333710,125.858826 183.617752,126.200790 184.010941,126.859108
z"/>
<path fill="#252B31" opacity="1.000000" stroke="none"
	d="
M261.960632,105.735428
	C261.800507,105.776741 261.565277,105.563957 261.195190,105.148582
	C261.316345,105.145470 261.591431,105.323914 261.960632,105.735428
z"/>
<path fill="#252B31" opacity="1.000000" stroke="none"
	d="
M252.966812,183.200409
	C253.041855,183.070175 253.275192,183.069000 253.859497,183.073242
	C253.848694,183.162247 253.486893,183.245865 252.966812,183.200409
z"/>
<path fill="#252B31" opacity="1.000000" stroke="none"
	d="
M246.951752,183.205963
	C247.024826,183.075287 247.258743,183.071930 247.844467,183.070709
	C247.835052,183.159637 247.473816,183.246460 246.951752,183.205963
z"/>
<path fill="#252B31" opacity="1.000000" stroke="none"
	d="
M206.778885,110.968491
	C206.815826,111.099510 206.629898,111.368935 206.238251,111.788239
	C206.164108,111.636047 206.338593,111.358978 206.778885,110.968491
z"/>
<path fill="#252B31" opacity="1.000000" stroke="none"
	d="
M264.280273,180.813812
	C264.271576,180.665009 264.517090,180.456421 265.000793,180.156860
	C265.019501,180.307114 264.784698,180.536499 264.280273,180.813812
z"/>
<path fill="#252B31" opacity="1.000000" stroke="none"
	d="
M301.271179,124.703995
	C301.122009,124.743462 300.775940,124.551170 300.206116,124.166245
	C300.346283,124.139816 300.710297,124.306030 301.271179,124.703995
z"/>
<path fill="#ADCCE8" opacity="1.000000" stroke="none"
	d="
M52.219944,25.742208
	C52.622917,25.848890 52.607845,25.976349 52.670631,25.989616
	C52.636337,27.106459 52.119282,28.987625 52.505566,29.196260
	C57.783813,32.047062 59.677856,39.089191 66.986961,39.882900
	C69.801086,40.188496 74.802589,42.103275 74.041580,47.595932
	C73.904564,48.584881 74.514404,50.433353 75.193436,50.663506
	C82.806274,53.243809 84.435783,61.443485 89.743904,65.893784
	C95.170494,70.443405 101.933273,73.377586 107.976318,77.230362
	C109.320648,78.087440 110.560837,79.689392 111.018379,81.199974
	C111.523346,82.867111 111.247581,84.847054 111.007797,86.650314
	C109.931190,94.746696 114.396729,100.206116 119.932060,104.939232
	C122.757172,107.354919 127.297745,108.361259 129.102432,111.235565
	C131.908417,115.704636 135.685654,114.985725 139.577805,116.023682
	C142.641205,116.840622 145.451035,119.974922 147.559235,122.707993
	C151.345428,127.616394 158.690704,129.458313 164.886581,127.165421
	C167.462006,126.212341 171.026810,126.134720 173.503418,127.176468
	C176.469681,128.424179 177.982376,131.441818 176.142654,135.108276
	C175.772034,135.846924 176.482971,138.045273 176.817734,138.072647
	C179.056503,138.255692 181.778412,138.808929 183.510193,137.804825
	C190.274475,133.882782 196.798599,129.527710 203.247574,125.094475
	C204.783737,124.038467 205.533279,121.907326 206.904663,120.529533
	C211.045715,116.369095 214.991821,111.910515 219.635162,108.386810
	C223.400375,105.529510 225.396317,101.887932 227.896378,98.152542
	C230.410339,94.396378 233.600281,89.947792 238.869904,89.094215
	C239.981339,88.914185 241.969040,90.176453 242.537582,91.291756
	C245.143234,96.403381 247.710052,101.365395 252.942993,104.471954
	C254.316437,105.287315 254.807175,107.468483 255.955246,108.806175
	C260.194031,113.745087 264.538361,118.593414 269.062744,124.053116
	C269.854980,125.079536 270.427429,125.528656 270.999908,125.977768
	C275.508667,127.314301 280.017426,128.650833 283.960114,129.819580
	C288.905731,128.884613 293.524750,128.011383 298.816467,127.010994
	C298.816467,130.945374 298.816467,134.516876 298.775299,138.772980
	C298.836975,140.300247 298.939819,141.142883 299.042664,141.985535
	C299.946655,148.684067 298.540253,151.071701 292.237061,152.761810
	C285.353760,154.607468 277.934204,155.246811 271.658325,158.289047
	C267.385986,160.360062 263.757172,165.201370 261.552338,169.651932
	C259.687531,173.416061 257.661652,176.568878 253.882172,177.037491
	C249.043549,177.637421 243.336227,179.025589 240.342957,172.828384
	C238.972382,169.990784 237.723801,169.612808 234.622223,171.542145
	C231.197098,173.672729 229.242493,176.376511 227.218597,179.612335
	C224.183212,184.465393 220.083969,184.977585 213.947372,183.270523
	C210.687973,182.363831 207.061829,182.775421 203.354385,182.578857
	C201.497299,187.099640 199.748657,191.438324 197.919205,195.742676
	C197.540817,196.632996 197.020187,197.917831 196.297134,198.137131
	C187.943420,200.670593 186.959946,209.630554 181.627258,214.821014
	C176.044357,220.255020 171.187592,226.427658 165.777496,232.050430
	C163.717361,234.191513 161.030975,235.743195 158.577164,237.489243
	C154.966171,240.058685 151.349075,242.624725 147.640503,245.048264
	C146.719498,245.650116 144.690933,246.259628 144.433899,245.917389
	C141.058929,241.424179 137.993744,244.011688 133.712021,247.242218
	C132.677811,242.490585 131.361145,238.571976 131.095490,234.583374
	C130.859665,231.043045 130.128067,229.454895 126.200569,229.755478
	C121.411102,230.122025 116.572212,229.842682 111.413109,229.842682
	C111.144073,230.984299 111.034805,232.102951 110.616699,233.090912
	C109.634811,235.411011 108.351593,235.687729 106.587517,233.649048
	C103.182144,229.713562 102.703239,224.985825 102.999290,220.169250
	C103.296158,215.339340 102.747330,211.864456 97.365059,209.466675
	C94.574516,208.223495 93.025826,203.664978 91.463821,200.346436
	C90.021210,197.281525 89.649788,193.702042 88.137291,190.684692
	C87.347740,189.109589 85.150780,187.293808 83.531517,187.236938
	C74.220932,186.909866 64.886482,186.863831 55.573135,187.148300
	C48.953960,187.350479 46.112782,185.824982 43.734459,179.674042
	C43.414143,178.845612 42.714790,177.929901 41.945721,177.546417
	C36.568359,174.864975 30.785942,172.822632 25.839758,169.518127
	C23.106707,167.692200 21.659016,163.868530 19.849991,160.816162
	C19.590441,160.378189 20.347750,158.769653 20.998072,158.455475
	C24.409918,156.807175 27.963474,155.455643 31.418568,153.892227
	C33.813873,152.808334 36.094868,151.471603 38.491123,150.390060
	C40.643734,149.418472 42.823814,148.395660 45.100189,147.837936
	C48.139988,147.093170 50.310249,146.477005 49.473183,142.308502
	C48.356514,136.747620 48.126133,131.012772 47.359646,125.373772
	C47.224609,124.380325 46.050289,123.547569 45.843006,122.540359
	C45.447697,120.619469 44.581825,117.364395 45.346024,116.866859
	C50.521122,113.497551 46.607712,108.529129 47.870026,104.569679
	C48.012592,104.122490 46.485622,103.075768 45.658207,102.398201
	C41.977077,99.383705 39.160160,95.809334 39.559196,90.791496
	C40.137215,83.523026 39.910934,76.588478 35.415371,70.288452
	C33.814102,68.044456 33.075413,65.152679 32.132271,62.489559
	C31.820736,61.609875 31.678917,60.083130 32.181248,59.595020
	C36.203426,55.686691 32.852283,51.859848 31.549360,48.605766
	C30.777119,46.677078 27.149633,45.886158 24.797260,44.599617
	C24.238583,44.294067 23.644888,44.052551 23.044722,43.770985
	C24.067036,37.898010 24.966774,32.920570 32.818924,32.369152
	C36.754501,32.092770 40.312138,28.079517 44.309917,26.395353
	C46.525723,25.461891 49.296398,25.845549 52.219944,25.742208
z"/>
<path fill="#252B31" opacity="1.000000" stroke="none"
	d="
M299.201904,141.756241
	C298.939819,141.142883 298.836975,140.300247 298.854462,139.224823
	C299.103577,139.837021 299.232361,140.681976 299.201904,141.756241
z"/>
<path fill="#252B31" opacity="1.000000" stroke="none"
	d="
M270.917358,125.716408
	C270.427429,125.528656 269.854980,125.079536 269.294128,124.313713
	C269.815399,124.483017 270.325104,124.969032 270.917358,125.716408
z"/>
</svg>